<svg width="32" height="32" viewBox="0 0 32 32" fill="none" xmlns="http://www.w3.org/2000/svg">
  <rect width="32" height="32" rx="6" fill="#3B82F6"/>
  <path d="M5 8H12V10.5H8.5V14H11.5V16.5H8.5V22H5V8Z" fill="white"/>
  <path d="M13 8H17.75C18.55 8 19.25 8.15 19.85 8.45C20.45 8.75 20.9167 9.17 21.25 9.71C21.5833 10.25 21.75 10.88 21.75 11.6C21.75 12.32 21.5833 12.95 21.25 13.49C20.9167 14.03 20.45 14.45 19.85 14.75C19.25 15.05 18.55 15.2 17.75 15.2H16.5V22H13V8ZM17.5 12.7C17.9 12.7 18.2083 12.5917 18.425 12.375C18.6417 12.1583 18.75 11.88 18.75 11.54C18.75 11.18 18.6417 10.8917 18.425 10.675C18.2083 10.4583 17.9 10.35 17.5 10.35H16.5V12.7H17.5Z" fill="white"/>
  <path d="M22 22V8H25.5V19.5H30V22H22Z" fill="white"/>
  <line x1="6" y1="25" x2="26" y2="25" stroke="white" stroke-width="2" stroke-linecap="round"/>
  <line x1="9" y1="29" x2="23" y2="29" stroke="white" stroke-width="2" stroke-linecap="round"/>
</svg> 